G04 EAGLE Gerber RS-274X export*
G75*
%MOMM*%
%FSLAX34Y34*%
%LPD*%
%IN*%
%IPPOS*%
%AMOC8*
5,1,8,0,0,1.08239X$1,22.5*%
G01*
%ADD10C,0.254000*%


D10*
X0Y50000D02*
X190Y45642D01*
X760Y41318D01*
X1704Y37059D01*
X3015Y32899D01*
X4685Y28869D01*
X6699Y25000D01*
X9042Y21321D01*
X11698Y17861D01*
X14645Y14645D01*
X17861Y11698D01*
X21321Y9042D01*
X25000Y6699D01*
X28869Y4685D01*
X32899Y3015D01*
X37059Y1704D01*
X41318Y760D01*
X45642Y190D01*
X50000Y0D01*
X1728000Y0D01*
X1732358Y190D01*
X1736682Y760D01*
X1740941Y1704D01*
X1745101Y3015D01*
X1749131Y4685D01*
X1753000Y6699D01*
X1756679Y9042D01*
X1760139Y11698D01*
X1763355Y14645D01*
X1766302Y17861D01*
X1768958Y21321D01*
X1771301Y25000D01*
X1773315Y28869D01*
X1774985Y32899D01*
X1776296Y37059D01*
X1777240Y41318D01*
X1777810Y45642D01*
X1778000Y50000D01*
X1778000Y915200D01*
X1777810Y919558D01*
X1777240Y923882D01*
X1776296Y928141D01*
X1774985Y932301D01*
X1773315Y936331D01*
X1771301Y940200D01*
X1768958Y943879D01*
X1766302Y947339D01*
X1763355Y950555D01*
X1760139Y953502D01*
X1756679Y956158D01*
X1753000Y958501D01*
X1749131Y960515D01*
X1745101Y962185D01*
X1740941Y963496D01*
X1736682Y964440D01*
X1732358Y965010D01*
X1728000Y965200D01*
X50000Y965200D01*
X45642Y965010D01*
X41318Y964440D01*
X37059Y963496D01*
X32899Y962185D01*
X28869Y960515D01*
X25000Y958501D01*
X21321Y956158D01*
X17861Y953502D01*
X14645Y950555D01*
X11698Y947339D01*
X9042Y943879D01*
X6699Y940200D01*
X4685Y936331D01*
X3015Y932301D01*
X1704Y928141D01*
X760Y923882D01*
X190Y919558D01*
X0Y915200D01*
X0Y50000D01*
M02*
