G04 EAGLE Gerber RS-274X export*
G75*
%MOMM*%
%FSLAX34Y34*%
%LPD*%
%INSolderpaste Top*%
%IPPOS*%
%AMOC8*
5,1,8,0,0,1.08239X$1,22.5*%
G01*
%ADD10R,1.100000X1.000000*%
%ADD11R,1.800000X1.600000*%
%ADD12R,1.000000X1.100000*%
%ADD13R,1.470000X1.270000*%
%ADD14R,0.400000X1.500000*%
%ADD15R,4.700000X1.750000*%
%ADD16R,0.550000X1.200000*%
%ADD17R,2.235200X1.219200*%
%ADD18R,2.200000X3.600000*%
%ADD19R,1.270000X1.470000*%
%ADD20R,2.000000X0.920000*%
%ADD21R,1.300000X2.400000*%
%ADD22R,0.558800X1.270000*%
%ADD23R,1.270000X0.558800*%
%ADD24R,5.334000X1.930400*%
%ADD25R,1.400000X1.900000*%
%ADD26R,0.800000X2.000000*%
%ADD27R,1.800000X1.400000*%


D10*
X555380Y289560D03*
X572380Y289560D03*
D11*
X873760Y473680D03*
X873760Y501680D03*
X680720Y473680D03*
X680720Y501680D03*
D10*
X636660Y91440D03*
X653660Y91440D03*
D11*
X236220Y674400D03*
X236220Y646400D03*
D10*
X722240Y551180D03*
X705240Y551180D03*
X148200Y749300D03*
X131200Y749300D03*
D12*
X1104900Y743340D03*
X1104900Y760340D03*
X1536700Y278520D03*
X1536700Y295520D03*
X520700Y240420D03*
X520700Y257420D03*
D10*
X580000Y170180D03*
X563000Y170180D03*
D11*
X525780Y471140D03*
X525780Y499140D03*
X561340Y445800D03*
X561340Y417800D03*
D10*
X1590920Y762000D03*
X1573920Y762000D03*
D12*
X487680Y56760D03*
X487680Y39760D03*
D13*
X525780Y336460D03*
X525780Y293460D03*
D14*
X120310Y654630D03*
X126810Y654630D03*
X133310Y654630D03*
X139810Y654630D03*
X146310Y654630D03*
X152810Y654630D03*
X159310Y654630D03*
X165810Y654630D03*
X172310Y654630D03*
X178810Y654630D03*
X185310Y654630D03*
X191810Y654630D03*
X198310Y654630D03*
X204810Y654630D03*
X204810Y727130D03*
X198310Y727130D03*
X191810Y727130D03*
X185310Y727130D03*
X178810Y727130D03*
X172310Y727130D03*
X165810Y727130D03*
X159310Y727130D03*
X152810Y727130D03*
X146310Y727130D03*
X139810Y727130D03*
X133310Y727130D03*
X126810Y727130D03*
X120310Y727130D03*
D15*
X464820Y297410D03*
X464820Y357910D03*
D12*
X1554480Y755260D03*
X1554480Y738260D03*
X1610360Y755260D03*
X1610360Y738260D03*
D15*
X109220Y195350D03*
X109220Y134850D03*
X236220Y195350D03*
X236220Y134850D03*
X360680Y190270D03*
X360680Y129770D03*
D10*
X580000Y210820D03*
X563000Y210820D03*
X653660Y619760D03*
X636660Y619760D03*
D16*
X563220Y267001D03*
X553720Y267001D03*
X544220Y267001D03*
X544220Y240999D03*
X563220Y240999D03*
X553720Y240999D03*
D17*
X485648Y423926D03*
X485648Y447040D03*
X485648Y470154D03*
D18*
X423670Y447040D03*
D19*
X224700Y254000D03*
X181700Y254000D03*
D20*
X1511300Y213360D03*
X1511300Y236710D03*
X1511300Y249660D03*
X1511300Y262610D03*
X1511300Y275560D03*
X1511300Y288510D03*
X1511300Y301460D03*
X1511300Y314410D03*
D21*
X1514800Y340060D03*
D20*
X1371300Y340310D03*
X1371300Y327360D03*
X1371300Y314410D03*
X1371300Y301460D03*
X1371300Y288510D03*
X1371300Y275560D03*
X1371300Y262610D03*
X1371300Y249660D03*
D21*
X1371300Y211060D03*
D20*
X1371300Y236710D03*
D22*
X721300Y579374D03*
X729300Y579374D03*
X737300Y579374D03*
X745300Y579374D03*
X753300Y579374D03*
X761300Y579374D03*
X769300Y579374D03*
X777300Y579374D03*
D23*
X792226Y594300D03*
X792226Y602300D03*
X792226Y610300D03*
X792226Y618300D03*
X792226Y626300D03*
X792226Y634300D03*
X792226Y642300D03*
X792226Y650300D03*
D22*
X777300Y665226D03*
X769300Y665226D03*
X761300Y665226D03*
X753300Y665226D03*
X745300Y665226D03*
X737300Y665226D03*
X729300Y665226D03*
X721300Y665226D03*
D23*
X706374Y650300D03*
X706374Y642300D03*
X706374Y634300D03*
X706374Y626300D03*
X706374Y618300D03*
X706374Y610300D03*
X706374Y602300D03*
X706374Y594300D03*
D24*
X825500Y502920D03*
X728980Y502920D03*
D10*
X1613780Y236710D03*
X1596780Y236710D03*
D12*
X1572260Y248040D03*
X1572260Y265040D03*
X1635760Y248040D03*
X1635760Y265040D03*
X447040Y915280D03*
X447040Y898280D03*
X289560Y767960D03*
X289560Y750960D03*
X1666240Y207400D03*
X1666240Y224400D03*
X1666240Y191380D03*
X1666240Y174380D03*
D10*
X664600Y571500D03*
X681600Y571500D03*
D12*
X525780Y442840D03*
X525780Y425840D03*
D10*
X148200Y774700D03*
X131200Y774700D03*
X1291980Y256540D03*
X1308980Y256540D03*
D12*
X472440Y898280D03*
X472440Y915280D03*
D10*
X182000Y624840D03*
X199000Y624840D03*
X1103240Y726440D03*
X1086240Y726440D03*
D25*
X284480Y949960D03*
X415980Y939960D03*
D26*
X408980Y913960D03*
X397980Y913960D03*
X386980Y915960D03*
X375980Y913960D03*
X364980Y915960D03*
X342980Y909960D03*
X353980Y913960D03*
D27*
X399980Y808460D03*
X342980Y808460D03*
D26*
X331980Y913960D03*
D10*
X1344540Y256540D03*
X1327540Y256540D03*
X1103240Y706120D03*
X1086240Y706120D03*
X1420740Y518160D03*
X1403740Y518160D03*
X1466460Y518160D03*
X1449460Y518160D03*
X1336920Y518160D03*
X1319920Y518160D03*
X1377560Y518160D03*
X1360560Y518160D03*
X580000Y190500D03*
X563000Y190500D03*
X1344540Y274320D03*
X1327540Y274320D03*
X728100Y91440D03*
X745100Y91440D03*
M02*
