G04 EAGLE Gerber RS-274X export*
G75*
%MOMM*%
%FSLAX34Y34*%
%LPD*%
%INSoldermask Bottom*%
%IPPOS*%
%AMOC8*
5,1,8,0,0,1.08239X$1,22.5*%
G01*
%ADD10C,1.955800*%
%ADD11R,2.000000X2.000000*%
%ADD12C,2.006600*%
%ADD13C,3.443000*%
%ADD14C,1.027000*%
%ADD15C,1.549400*%
%ADD16C,3.253000*%
%ADD17C,1.882000*%
%ADD18C,2.527000*%
%ADD19C,2.677000*%
%ADD20C,0.881000*%
%ADD21C,1.041400*%
%ADD22C,8.128000*%


D10*
X360680Y41040D03*
D11*
X360680Y91040D03*
D10*
X109220Y41040D03*
D11*
X109220Y91040D03*
D10*
X236220Y41040D03*
D11*
X236220Y91040D03*
D12*
X518160Y35560D03*
X518160Y60960D03*
X284480Y298958D03*
X284480Y270002D03*
X872490Y833120D03*
X869950Y807720D03*
X872490Y782320D03*
X897890Y833120D03*
X895350Y807720D03*
X897890Y782320D03*
X622300Y35560D03*
X622300Y60960D03*
X711200Y35560D03*
X711200Y60960D03*
D13*
X236220Y855980D03*
X115820Y855980D03*
D14*
X188520Y828880D03*
X163520Y808880D03*
X188520Y808880D03*
X163520Y828880D03*
D15*
X1457960Y601980D03*
X1457960Y621980D03*
X1457960Y641980D03*
X1457960Y661980D03*
X1457960Y681980D03*
X1457960Y701980D03*
X1457960Y721980D03*
X1457960Y741980D03*
X1457960Y761980D03*
X1457960Y781980D03*
X1157960Y761980D03*
X1157960Y741980D03*
X1157960Y721980D03*
X1157960Y701980D03*
X1157960Y681980D03*
X1157960Y661980D03*
X1157960Y641980D03*
X1157960Y621980D03*
X1157960Y601980D03*
D16*
X1676400Y795020D03*
X1742400Y795020D03*
D17*
X1709400Y762020D03*
D16*
X1676400Y729020D03*
X1742400Y729020D03*
D18*
X1729740Y236710D03*
D19*
X1704340Y262110D03*
X1755140Y262110D03*
X1755140Y211310D03*
X1704340Y211310D03*
D12*
X304800Y572770D03*
X279400Y575310D03*
X254000Y572770D03*
X770890Y833120D03*
X768350Y807720D03*
X770890Y782320D03*
X796290Y833120D03*
X793750Y807720D03*
X796290Y782320D03*
D20*
X1381760Y568960D03*
D21*
X561340Y513080D03*
X904240Y556260D03*
X640080Y513080D03*
D22*
X111760Y337820D03*
X1584960Y86360D03*
X1584960Y589280D03*
M02*
