M48
;GenerationSoftware,Autodesk,EAGLE,9.3.0*%
;CreationDate,2020-02-16T03:36:13Z*%
FMAT,2
ICI,OFF
METRIC,TZ,000.000
T14C0.330
T13C0.350
T12C0.500
T11C0.600
T10C0.610
T9C0.650
T8C0.900
T7C1.016
T6C1.170
T5C1.600
T4C1.700
T3C2.110
T2C2.300
T1C3.048
%
G90
M71
T1
X158496Y58928
X158496Y8636
X11176Y33782
T2
X23622Y85598
X11582Y85598
T3
X167640Y79502
X174240Y79502
X167640Y72902
X174240Y72902
T4
X170434Y21131
X175514Y21131
X175514Y26211
X170434Y26211
T5
X172974Y23671
T6
X170940Y76202
T7
X30480Y57277
X27940Y57531
X25400Y57277
X77089Y83312
X76835Y80772
X77089Y78232
X79629Y83312
X79629Y78232
X51816Y3556
X51816Y6096
X28448Y29896
X28448Y27000
X87249Y83312
X86995Y80772
X87249Y78232
X89789Y83312
X89535Y80772
X89789Y78232
X62230Y3556
X62230Y6096
X71120Y3556
X71120Y6096
X79375Y80772
T8
X36068Y9104
X10922Y4104
X10922Y9104
X23622Y4104
X23622Y9104
X36068Y4104
T9
X145796Y64198
X145796Y60198
X145796Y62198
X145796Y66198
X145796Y68198
X145796Y70198
X145796Y72198
X145796Y74198
X145796Y76198
X145796Y78198
X115796Y76198
X115796Y74198
X115796Y72198
X115796Y70198
X115796Y68198
X115796Y66198
X115796Y64198
X115796Y62198
X115796Y60198
T10
X64008Y51308
X90424Y55626
X56134Y51308
T11
X16352Y80888
X18852Y80888
X16352Y82888
X18852Y82888
T12
X138176Y56896
T13
X38608Y88900
X47244Y88138
X27432Y74930
X36576Y88900
X38354Y93472
X44704Y92964
X76708Y60706
X30480Y76708
X79756Y67056
X77978Y73406
X77470Y64008
X44196Y72898
X77724Y68580
X69850Y73406
X106934Y29210
X56896Y58166
X60198Y53086
X60198Y39370
X139954Y33528
X133350Y33528
X92710Y57658
X70612Y57658
X13970Y69342
T14
X131992Y50292
X66040Y58420
X59182Y78994
X2540Y54102
X27940Y69342
X131064Y27686
X64770Y59182
X26670Y67310
X38862Y67310
X53594Y77216
X72644Y60960
X65532Y52832
X73660Y38100
X71120Y35560
X142494Y26670
X82296Y76454
X15240Y60706
X16002Y67310
X59944Y68580
X132588Y23114
X116586Y49022
X62230Y53086
X56896Y62738
X85598Y60960
X103886Y69088
X140208Y26924
X131826Y24384
X150368Y94488
X96266Y94234
X65278Y69088
X73660Y85090
X63754Y68834
X72390Y85090
X175260Y56896
X172466Y7874
X122428Y4318
X51816Y79756
X2540Y80518
X2540Y30988
X107950Y82042
X97282Y74422
X86106Y67818
X92710Y53848
X30988Y64516
X43688Y64008
X44704Y67818
X55626Y69596
X58166Y23114
X57150Y12700
X50800Y21844
X53340Y20828
X54356Y17780
X50546Y16764
X46482Y20828
X42926Y24638
X44958Y26670
X47752Y25400
X38862Y32004
X52578Y12192
X74168Y13462
X66802Y13208
X66802Y36830
X96012Y28702
X81026Y34036
X75692Y28702
X90424Y22606
X135128Y57150
X142240Y55880
X146558Y57658
X120904Y73406
X120904Y59182
X44450Y81280
X41402Y77470
X34798Y75438
X24892Y72898
X66802Y70104
X76708Y70358
X67818Y64008
X59690Y57404
X52070Y56388
X58674Y43434
X57912Y48260
X27940Y48768
X32766Y36576
X36322Y53594
X47752Y39624
X54610Y39624
X117094Y26670
X126492Y30734
X126746Y21082
X134112Y21082
X133858Y37592
X133604Y30734
X137668Y40386
X143764Y21336
X146304Y31750
X124968Y49276
X59182Y93980
X55372Y30480
X50038Y69850
M30